 http://img195.imageshack.us/img195/8696/changeofplans2528201125.jpg

Country.......: USA, Canada
Genre.........: Comedy, Drama, Family
Date release..: 08.01.2011 [World]
Director......: John Kent Harrison
Writers.......: Karen Hall, John Kent Harrison
Duration......: 88 min.
More..........: http://www.imdb.com/title/tt1790658
Trailer.......:

Pilot :
Sally and Jason Danville's life are turned upside down when a tragic accident suddenly names them the caretakers of four young children. 

Cats :
Brooke White   	 ...  	Sally Danville
Joe Flanigan 	... 	Jason Danville
Phylicia Rashad 	... 	Dorothy
Jayme Lynn Evans 	... 	Jordan Solarte
Bobby Soto 	... 	Javier Solarte
Jakobe' Dempsey 	... 	Kaleb Solarte
Clarissa Suwoko 	... 	Sung-Lee Solarte
Randy Jackson 	... 	Himself
Justin Kelly 	... 	Noah Roorda
Aurora Kruk 	... 	Christine
Craig Cornfield 	... 	Danny Wychowski
Patrick Garrow 	... 	Coach Tamblyn
Jeff Burton 	... 	Himself
James Thomas 	... 	Bobby Everby
Arnold Pinnock 	... 	Clay 

Data Technical :
!!! SAMPLE !!!
Audio.....: English
Subtitles.: None
Format                           : AVI
Format/Info                      : Audio Video Interleave
File size                        : 698 MiB
Duration                         : 1h 27mn
Overall bit rate                 : 1 109 Kbps
Writing application              : VirtualDubMod 1.5.10.1 (build 2366/release)
Writing library                  : VirtualDubMod build 2366/release
Video
ID                               : 0
Format                           : MPEG-4 Visual
Format profile                   : Advanced Simple@L5
Format settings, BVOP            : Yes
Format settings, QPel            : No
Format settings, GMC             : No warppoints
Format settings, Matrix          : Default (MPEG)
Codec ID                         : XVID
Codec ID/Hint                    : XviD
Duration                         : 1h 27mn
Bit rate                         : 972 Kbps
Width                            : 640 pixels
Height                           : 352 pixels
Display aspect ratio             : 16:9
Frame rate                       : 23.976 fps
Color space                      : YUV
Chroma subsampling               : 4:2:0
Bit depth                        : 8 bits
Scan type                        : Progressive
Bits/(Pixel*Frame)               : 0.180
Stream size                      : 611 MiB (88%)
Writing library                  : XviD 1.2.1 (UTC 2008-12-04)
Audio
ID                               : 1
Format                           : MPEG Audio
Format version                   : Version 1
Format profile                   : Layer 3
Mode                             : Joint stereo
Mode extension                   : MS Stereo
Codec ID                         : 55
Codec ID/Hint                    : MP3
Duration                         : 1h 27mn
Bit rate mode                    : Constant
Bit rate                         : 128 Kbps
Channel(s)                       : 2 channels
Sampling rate                    : 48.0 KHz
Stream size                      : 80.5 MiB (12%)
Alignment                        : Aligned on interleaves
Interleave, duration             : 42 ms (1.00 video frame)
Interleave, preload duration     : 504 ms
Writing library                  : LAME3.98r
Encoding settings                : -m j -V 4 -q 2 -lowpass 17 -b 128

Screen : 
http://img30.imageshack.us/img30/8500/changeofplans2011s1.jpg 
http://img577.imageshack.us/img577/9418/changeofplans2011s2.jpg 
http://img607.imageshack.us/img607/9273/changeofplans2011s3.jpg 
http://img835.imageshack.us/img835/1770/changeofplans2011s4.jpg 
http://img225.imageshack.us/img225/547/changeofplans2011s5.jpg